# xmcd CD Database Entry
#
# Track frame offsets:
# 150
# 26498
# 50056
# 67129
# 99764
# 120392
# 152038
# 166153
# 193056
# 216660
# 248418
# 268151
# 287103
# 312275
#
# Disc length: 4388 seconds
#
# Revision: 1
# Processed by: cddbd v1.4b41PL1 Copyright (c) Steve Scherf et al.
# Submitted via: tcd 2.0b
#
DISCID=ca11220e
DTITLE=Cafe Del Mar - Volument Seis
DYEAR=1900
DGENRE=
TTITLE0=Talvin Singh. Traveller (Kid Loco's Once Upon A Time In The E
TTITLE0=ast Remix)
TTITLE1=Afterlife. Dub In Ya Mind (Beach Club Mix)
TTITLE2=A New Funky Generation. The Messenger
TTITLE3=dZihan and Kamien. Homebass
TTITLE4=Mandalay. Beuatiful (7" Canny Mix)
TTITLE5=Humate. 3.2 Bedrock  (Ambient Mix)
TTITLE6=Endorphin. Satie 1
TTITLE7=Nitin Sawhney. Homelands
TTITLE8=Rae and Christian. A Distant Invitation
TTITLE9=Bugge Wesseltoft. Existence (Edit)
TTITLE10=Paco Fernandez/Leviation feat. Cathy Battistessa. Oh Home
TTITLE11=Marc Collin. Les Kid Nappeurs Main Theme
TTITLE12=Jose Padilla. Adios Ayer
TTITLE13=Moonrock. I'll Street Blues
EXTD=
EXTT0=
EXTT1=
EXTT2=
EXTT3=
EXTT4=
EXTT5=
EXTT6=
EXTT7=
EXTT8=
EXTT9=
EXTT10=
EXTT11=
EXTT12=
EXTT13=
PLAYORDER=
